<svg width="215" height="37" fill="none" xmlns="http://www.w3.org/2000/svg"><g clip-path="url(#clip0)"><path fill-rule="evenodd" clip-rule="evenodd" d="M189.547 16.578l4.255-4.268-4.239-4.252-8.49 8.52h8.474z" fill="url(#paint0_linear)"/><path fill-rule="evenodd" clip-rule="evenodd" d="M181.533 6.087V.076h27.481l5.983 6.011h-33.464z" fill="url(#paint1_linear)"/><path fill-rule="evenodd" clip-rule="evenodd" d="M209.007 33.536h5.99V6.147l-5.99-6.074v33.463z" fill="url(#paint2_linear)"/><path fill-rule="evenodd" clip-rule="evenodd" d="M214.997 33.536l-12.159-12.2-4.239 4.25 7.926 7.95h8.472z" fill="url(#paint3_linear)"/><path fill-rule="evenodd" clip-rule="evenodd" d="M190.677 33.536l12.158-12.2 4.239 4.25-7.926 7.95h-8.471z" fill="url(#paint4_linear)"/><path fill-rule="evenodd" clip-rule="evenodd" d="M181.533 0l12.269 12.307-4.239 4.252-8.03-8.058V0z" fill="url(#paint5_linear)"/><path d="M6.873 17.83h6.462v15.744h2.936l-.293-2.04V15.65H3.876l.382 2.506-.158 2.888a110.946 110.946 0 01-.315 4.746 25.737 25.737 0 01-.47 3.293 4.665 4.665 0 01-.792 1.92 1.642 1.642 0 01-1.347.633 4.23 4.23 0 01-.605-.04 3.392 3.392 0 01-.571-.12l.265 2.261c.23.058.465.103.7.136.245.035.491.053.738.054a3.638 3.638 0 002.173-.633 4.332 4.332 0 001.391-1.778c.384-.881.657-1.807.814-2.755.2-1.176.34-2.36.42-3.55a151 151 0 00.226-4.163l.146-3.218zm24.572 4.895v10.93H33.7l-.224-1.565V19.903h-1.961l-7.397 9.865-.608 1.066v-10.93h-2.322l.294 1.923v11.829h1.961l7.393-9.865.61-1.066zm5.072 14.291h2.053l.022-3.344h9.626l.038 3.344h2.053L50.262 32h-1.69V19.903h-9.147l.293 1.924-.022 1.379c0 1.18-.032 2.278-.117 3.3a15.975 15.975 0 01-.498 2.876 11.038 11.038 0 01-1.098 2.603h-1.419l-.047 5.03zm5.207-13.794v-1.649h4.803v10.412h-6.289c.411-.83.729-1.703.947-2.603a18.28 18.28 0 00.447-2.876c.06-1.022.098-2.12.092-3.3v.016zm12.354 10.434h7.216l.448-1.547H56.11v-4.724h4.258l.451-1.547H56.11V21.45h5.387v-1.547h-7.711l.293 1.924v11.829zm11.338-13.753l.294 1.924v11.829h2.255l-.224-1.566v-3.575h1.104a6.849 6.849 0 002.252-.358 5.672 5.672 0 001.782-.977 4.496 4.496 0 001.176-1.427 3.696 3.696 0 00.426-1.709 4.067 4.067 0 00-.413-1.835 3.649 3.649 0 00-1.091-1.293 4.862 4.862 0 00-1.559-.76 6.46 6.46 0 00-1.807-.25l-4.195-.003zm2.325 7.065V21.45h1.463c.404-.002.807.052 1.196.162.36.102.698.268 1 .49.286.214.52.491.684.81.173.35.26.738.255 1.13.004.418-.083.833-.255 1.214-.16.352-.394.666-.684.92a2.996 2.996 0 01-1 .586 3.48 3.48 0 01-1.196.206h-1.463zm29.657-11.317h-16.01l.382 2.506v15.417h2.94l-.294-2.04V17.83h10.339v15.743h2.936l-.293-2.04V15.65zm10.686 3.999a6.68 6.68 0 00-2.183.367 6.568 6.568 0 00-1.864 1.025 6.89 6.89 0 00-1.445 1.566 7.285 7.285 0 00-.946 1.993 7.998 7.998 0 00-.325 2.29 8.754 8.754 0 00.278 2.215 7.17 7.17 0 00.811 1.927 6.046 6.046 0 001.324 1.522 5.904 5.904 0 001.798 1 6.898 6.898 0 002.258.357 6.667 6.667 0 002.192-.364 6.588 6.588 0 001.871-1.028 6.903 6.903 0 001.46-1.582 7.44 7.44 0 00.946-2 8.01 8.01 0 00.337-2.312 9.108 9.108 0 00-.406-2.787 6.274 6.274 0 00-1.221-2.215 5.502 5.502 0 00-2.031-1.465 7.345 7.345 0 00-2.858-.531l.004.022zm-4.555 7.128a7.536 7.536 0 01.316-2.193 5.653 5.653 0 01.908-1.806 4.356 4.356 0 011.403-1.215 3.97 3.97 0 013.631 0 4.36 4.36 0 011.394 1.215c.399.541.701 1.148.892 1.794a7.781 7.781 0 010 4.388 5.793 5.793 0 01-.892 1.794 4.36 4.36 0 01-1.394 1.215 3.968 3.968 0 01-3.631 0 4.356 4.356 0 01-1.403-1.215 5.673 5.673 0 01-.902-1.794 7.544 7.544 0 01-.322-2.183zm24.503-4.053v10.93h2.252l-.224-1.565V19.903h-1.961l-7.393 9.865-.609 1.066v-10.93h-2.321l.293 1.923v11.829h1.959l7.396-9.865.608-1.066zm17.19-1.36a7.157 7.157 0 00-2.167-1.281 7.581 7.581 0 00-4.838-.073 6.957 6.957 0 00-3.517 2.597 7.358 7.358 0 00-1.019 2.047 8.018 8.018 0 00-.363 2.417 7.584 7.584 0 00.379 2.433 6.27 6.27 0 002.555 3.297c.58.371 1.211.656 1.873.844.67.188 1.361.283 2.056.282a8.172 8.172 0 003.164-.642c.38-.154.75-.333 1.107-.535.315-.18.546-.316.71-.452.164-.136.249-.187.249-.19l-.495-1.547-.259.183c-.17.117-.401.263-.694.434-.293.17-.631.348-.993.525a8.584 8.584 0 01-1.186.433 4.552 4.552 0 01-2.738-.063 5.095 5.095 0 01-2.523-1.835 5.404 5.404 0 01-.776-1.515 6.05 6.05 0 01-.284-1.86 6.238 6.238 0 01.234-1.703 6.003 6.003 0 01.656-1.547 5.49 5.49 0 011.037-1.265 4.6 4.6 0 011.385-.835 4.371 4.371 0 011.627-.317 5.171 5.171 0 012.057.411 5.745 5.745 0 011.725 1.171l1.038-1.414zm5.904 4.41v-5.872h-2.322l.294 1.924v11.829h2.255l-.227-1.566v-4.641h1.602l4.17 6.207h2.57l-4.961-7.106 2.163-3.597a5.26 5.26 0 01.657-.88c.173-.194.379-.357.608-.48a1.2 1.2 0 01.562-.143h.407c.113.008.226.025.337.05l-.202-1.736a2.1 2.1 0 00-.375-.086 3.3 3.3 0 00-.527-.04 2.77 2.77 0 00-1.066.205 3.508 3.508 0 00-1.113.753 6.725 6.725 0 00-1.098 1.503l-2.116 3.676h-1.618zm9.973 7.881h1.961l1.464-3.6h5.522l1.42 3.594h2.46l-1.129-2.3-4.599-11.719-1.375.272-5.724 13.753zm6.017-9.969l.272-.838.224.816 1.87 4.809h-4.349l1.983-4.787z" fill="#1D1D1B"/></g><defs><linearGradient id="paint0_linear" x1="195.054" y1="10.2" x2="178.934" y2="16.371" gradientUnits="userSpaceOnUse"><stop stop-color="#445DA7"/><stop offset="1" stop-color="#49B1E5"/></linearGradient><linearGradient id="paint1_linear" x1="23167.4" y1="58.624" x2="19267.5" y2="58.624" gradientUnits="userSpaceOnUse"><stop stop-color="#445DA7"/><stop offset="1" stop-color="#49B1E5"/></linearGradient><linearGradient id="paint2_linear" x1="4234.96" y1="3724.5" x2="4234.96" y2="-169.919" gradientUnits="userSpaceOnUse"><stop stop-color="#445DA7"/><stop offset="1" stop-color="#49B1E5"/></linearGradient><linearGradient id="paint3_linear" x1="202.122" y1="23.554" x2="211.063" y2="34.964" gradientUnits="userSpaceOnUse"><stop offset=".01" stop-color="#445DA7"/><stop offset="1" stop-color="#49B1E5"/></linearGradient><linearGradient id="paint4_linear" x1="10530.1" y1="1428.05" x2="10530.1" y2="730.365" gradientUnits="userSpaceOnUse"><stop stop-color="#445DA7"/><stop offset="1" stop-color="#49B1E5"/></linearGradient><linearGradient id="paint5_linear" x1="7268.46" y1="-133.797" x2="7822.49" y2="833.148" gradientUnits="userSpaceOnUse"><stop stop-color="#445DA7"/><stop offset="1" stop-color="#49B1E5"/></linearGradient><clipPath id="clip0"><path fill="#fff" d="M0 0h215v37H0z"/></clipPath></defs></svg>