<svg width="28" height="23" fill="none" xmlns="http://www.w3.org/2000/svg"><path d="M21.87 7.077l-1.447-5.069C20.26 1.434 19.88.925 19.347.561A3.323 3.323 0 0017.48 0h-6.96c-.676 0-1.333.198-1.866.561-.534.364-.913.873-1.077 1.447L6.13 7.077H0l3.975 13.915c.165.574.544 1.083 1.077 1.447A3.33 3.33 0 006.919 23h14.162c.676 0 1.333-.198 1.867-.561.533-.364.912-.873 1.077-1.447L28 7.077h-6.13zm-8.882 8.846v5.308h-2.195L9.65 15.923h3.338zm-3.712-1.77L8.133 8.847h4.855v5.308H9.276zm5.736 1.77h3.338l-1.143 5.308h-2.195v-5.308zm0-1.77V8.847h4.855l-1.143 5.308h-3.712zm6.909-5.307h3.49l-1.518 5.308h-3.116l1.143-5.308zM9.539 2.442a.886.886 0 01.37-.493c.184-.122.41-.186.642-.18h6.96c.23-.006.457.058.64.18a.886.886 0 01.37.493l1.265 4.635H8.214l1.325-4.635zm-3.46 6.404l1.144 5.308H4.107L2.59 8.846h3.49zm-.171 11.712l-1.295-4.635h3.034l1.133 5.308H6.92a1.112 1.112 0 01-.642-.18.886.886 0 01-.37-.492zm16.124 0a.88.88 0 01-.346.477c-.172.12-.384.19-.605.196h-1.81l1.132-5.308h3.035l-1.406 4.635z" fill="#35383A"/></svg>